<svg xmlns="http://www.w3.org/2000/svg" width="17" height="14" viewBox="0 0 17 14">
    <path fill="#22232B" fill-rule="evenodd" d="M11.532 12a1 1 0 1 1 0 2H6.569a1 1 0 0 1 0-2h4.963zm-7.958 0a1 1 0 0 1 0 2H1.596a1 1 0 0 1 0-2h1.978zm10.942-4a1 1 0 0 1 0 2H8.559a1 1 0 1 1 0-2h5.957zM5.564 8a1 1 0 1 1 0 2H3.585a1 1 0 1 1 0-2h1.979zm9.947-4a1 1 0 1 1 0 2H8.559a1 1 0 1 1 0-2h6.952zM5.564 4a1 1 0 1 1 0 2H3.585a1 1 0 1 1 0-2h1.979zm3.979-4a1 1 0 1 1 0 2H6.569a1 1 0 1 1 0-2h2.974zM3.574 0a1 1 0 1 1 0 2H1.596a1 1 0 1 1 0-2h1.978z"/>
</svg>
